<?xml version="1.0" encoding="utf-8"?>
<!-- Generator: Adobe Illustrator 18.1.1, SVG Export Plug-In . SVG Version: 6.00 Build 0)  -->
<!DOCTYPE svg PUBLIC "-//W3C//DTD SVG 1.1//EN" "http://www.w3.org/Graphics/SVG/1.1/DTD/svg11.dtd">
<svg version="1.1" id="Layer_1" xmlns="http://www.w3.org/2000/svg" xmlns:xlink="http://www.w3.org/1999/xlink" x="0px" y="0px"
	 viewBox="0 0 20 20" enable-background="new 0 0 20 20" xml:space="preserve">
<path fill="#FFFFFF" d="M0.5,1.6l1-1c0.3-0.3,0.8-0.3,1.1,0l16.8,16.8c0.3,0.3,0.3,0.8,0,1.1l-1,1c-0.3,0.3-0.8,0.3-1.1,0L0.5,2.7
	C0.2,2.4,0.2,1.9,0.5,1.6z"/>
<path fill="#FFFFFF" d="M1.6,19.5l-1-1c-0.3-0.3-0.3-0.8,0-1.1L17.3,0.5c0.3-0.3,0.8-0.3,1.1,0l1,1c0.3,0.3,0.3,0.8,0,1.1L2.7,19.5
	C2.4,19.8,1.9,19.8,1.6,19.5z"/>
</svg>
