<?xml version="1.0" encoding="utf-8"?>
<!-- Generator: Adobe Illustrator 18.1.1, SVG Export Plug-In . SVG Version: 6.00 Build 0)  -->
<svg version="1.1" id="Layer_1" xmlns="http://www.w3.org/2000/svg" xmlns:xlink="http://www.w3.org/1999/xlink" x="0px" y="0px"
	 viewBox="116.6 1479.9 1039.4 1039.4" enable-background="new 116.6 1479.9 1039.4 1039.4" xml:space="preserve">
<path fill="#FFFFFF" d="M1147.7,1988c-3.6-14.8-12.1-33.1-19.7-43.3c-3.4-4.5-13.9-19-34.9-21.8c-16.5-2.2-43.6-6.6-91.8-11.6
	c-49.3-5.1-57.6-6.4-100.3-10.8c-42.4-4.4-62.7-6.4-73.2-4.2c-11.4,2.3-18.9,12.8-21,26.1c-3.7,22.6-1,53.8,17.4,65.6
	c18.2,11.7,53.5,15.1,79.6,18.6c5.3,0.7,11.1,5,0.9,10.1c-5.2,2.6-18.5,7.6-35.2,13.5l0,0c-0.1,0-0.2,0.1-0.3,0.1
	c-46.9,16.5-121.3,38.8-125.6,39.6c-5.1,1-8-2.6-8.4-9.6c-0.4-6.2,0.1-14.3,0-22.2c-0.2-31-1.5-56.2-10.6-79.3
	c-4.9-12.4-18.1-38.5-61.4-57.9c-24.2-10.9-83.7-24.9-109.5-21.3c-27,3.7-35.4,7.5-54.9,18.5c-67.8,38-128.7,121.3-148.5,186
	c-6.3,20.7-14.7,72.3,1.2,101.9c22.3,41.5,64,59.6,112.1,56.5c21-1.4,70.6-7.3,77.7-8.2c3.3-0.4,6,1.8,4.3,4.7
	c-21.1,36.3-85.1,115.2-171.7,111.4c-28.3-1.2-75.7-6.3-102.7-73.1c-10.7-26.5-46.1-119.9,22.4-310.1
	c14.5-40.4,89.6-222.2,277-304.3c24.2-10.6,43.1-11.2,52.5-9c10.8,2.5,9.7,11.7,9.3,18.6c-0.4,6.9-6.9,32.9-9.1,57.9
	c-1.6,17.6,2.2,31.8,10.2,38.9c12.5,11.1,30.5,16.7,53,20.1c31.7,4.7,57.6,4.7,74.3-32c8.4-18.4,12.6-42.9,13.7-66.7
	c1.4-29.4-1.9-52.8-11.6-70.9c-11.3-21.1-34-49.4-69.5-66.5c-35.1-17-71.2-22.6-96.1-23.3c-12.9-0.4-49.8,4.8-87,18.3
	c-122.4,44.6-277.5,173.2-354.1,405c-48,145.3-38.7,303.8,15.4,395.1c34.6,58.4,84.7,102.2,166.2,119c50.2,10.3,104.4-4.3,141-20.1
	c127.5-55.1,186.4-171.8,219.1-229.1c6.2-10.9,14.6-13.3,23.1-16.6c8.4-3.3,157-45.1,223.5-69.3c5.4-2,7.8,3.1,4,8.7
	c-8.1,11.7-31.7,41.6-36.1,48.9c-5.6,9.4-6.8,15.3-5.4,24.1c3.7,22.9,38.5,49.7,47.9,54c8.2,3.7,18.1,1.5,27.9-6.4
	c21.2-17,145.5-200.4,159-234.5C1146.4,2015.1,1150.9,2001.2,1147.7,1988z M605.2,2086.8c-1.8,11.2-4.8,14.5-15.6,16.7
	c-29.4,6.2-100.9,15.9-112,14.3c-5.3-0.7-15.2,0.2-10.2-15.1c11.3-34.4,74.7-106,102.4-111.1c10-1.9,19.2-1.7,28,9.7
	C613.9,2022,607.1,2075,605.2,2086.8z"/>
</svg>
