<?xml version="1.0" encoding="utf-8"?>
<!-- Generator: Adobe Illustrator 18.1.1, SVG Export Plug-In . SVG Version: 6.00 Build 0)  -->
<svg version="1.1" id="Logo_1_" xmlns="http://www.w3.org/2000/svg" xmlns:xlink="http://www.w3.org/1999/xlink" x="0px" y="0px"
	 viewBox="0 0 843.4 234.5" enable-background="new 0 0 843.4 234.5" xml:space="preserve">
<g id="Logo">
</g>
<g>
	<path fill-rule="evenodd" clip-rule="evenodd" fill="#FFFFFF" d="M191.1,152.1c8.7-5.9,31.2-15.9,50.2-39.9
		c13.2-16.7,13.4-32.9-2.7-46.7c-7.4-6.3-16.2-12.3-27.3-14.3c-3.7-0.7-6.7-0.8-10.8-0.5c-5.9,0.5-17.1,3.3-24.1,17.7
		c-11.5,23.5-21.4,67.9-22.7,72.7c-0.2,0.8-0.9,1.3-1.7,1.6c-3.2,1.5-19.8,6.8-25.3,8c-1.6,0.4-1.2-3.1-1.2-6.5
		c0-6.1-0.3-11.1-2.1-15.6c-1-2.4-3.6-7.6-12.1-11.4c-4.8-2.1-16.5-4.9-21.6-4.2c-5.3,0.7-7,1.5-10.8,3.6
		c-13.4,7.5-25.4,23.9-29.3,36.7c-1.3,4.1-2.9,14.3,0.2,20.1c4.4,8.2,12.6,11.8,22.1,11.1c4.1-0.3,13.9-1.4,15.3-1.6
		c0.7-0.1,1.2,0.4,0.8,0.9c-4.2,7.2-16.8,22.7-33.9,22c-5.6-0.2-14.9-1.2-20.3-14.4c-2.1-5.2-8.8-24.4,4.4-61.2
		c2.9-8,17.7-43.8,54.6-60c4.8-2.1,8.5-2.2,10.3-1.8c2.1,0.5,1.9,2.3,1.8,3.7c-0.1,1.4-1.4,6.5-1.8,11.4c-0.3,3.5,0.4,6.3,2,7.7
		c2.5,2.2,6,3.3,10.5,4c6.2,0.9,11.4,0.9,14.7-6.3c1.6-3.6,2.5-8.5,2.7-13.2c0.3-5.8-0.4-10.4-2.3-14c-2.2-4.2-6.7-9.7-13.7-13.1
		c-6.9-3.4-14-4.5-19-4.6c-2.5-0.1-9.8,0.9-17.2,3.6C57,56.5,26.4,81.9,11.3,127.6c-9.5,28.7-7.6,59.9,3,77.9
		c6.8,11.5,16.7,20.2,32.8,23.5c9.9,2,20.6-0.9,27.8-4c25.1-10.9,36.8-33.9,43.2-45.2c1.2-2.1,2.9-2.8,4.6-3.3
		c7-2.3,14.6-3.8,22.6-6.6c0.5-0.2,1,0.3,0.9,0.9c-1,4.6-6,24.5-8.3,37.3c-0.9,4.7-0.5,7.7,2,9.8c2.2,1.8,5.9,3.1,10.8,3
		c4.2-0.1,7.8-1.4,9.5-6.4c1.4-4.2,8.8-38.4,10.3-42.9c1-2.9,2.4-2,3.3-1.3c2.2,1.6,8.2,4.6,11.4,6.3c15.7,8.5,31,12.5,36,13.4
		c5.3,1,8.3,0.8,11.2-1.6c2.6-2.2,5.9-7.9,7-12.4c1.2-4.9,0-7.3-3.5-8.6c-2.2-0.8-13.5-3.1-24-6.2c-9.3-2.7-16.8-5.3-19.9-6.9
		C190.1,153.7,190.1,152.8,191.1,152.1z M99.9,154c-0.4,2.2-0.9,2.9-3.1,3.3c-5.8,1.2-19.9,3.1-22.1,2.8c-1-0.1-3,0-2-3
		c2.2-6.8,14.7-20.9,20.2-21.9c2-0.4,3.8-0.3,5.5,1.9C101.6,141.2,100.3,151.7,99.9,154z M189.2,126.4c-1.1,0.6-3.6,2.4-5,2.3
		c-0.9,0-1.3-0.8-1-2c0.7-2.8,4.9-20.2,12.1-37.3c5.1-12.1,9.5-16,14.8-16.4c3.1-0.2,5.7,1.3,7,2.1c6.1,3.9,9.8,9.1,6.9,16.3
		c-2.1,5-5,8.6-9,13.8C206.8,115.9,192.1,124.7,189.2,126.4z"/>
	<path fill-rule="evenodd" clip-rule="evenodd" fill="#FFFFFF" d="M542.3,59.4c3.4-1.6,11.1-2.6,18-2.5c4.6,0,12.6,1.4,18.5,0.8
		c4.8-0.4,7.5-1.2,9.5-2.9c8.1-7,5.3-20.4-4.5-23.8c-2.9-1-7.1-1.7-15-0.9c-28.4,2.9-84.2,11-92.7,13c-5.4,1.3-9.3,4-10.3,7.2
		c-1.6,4.7,0.2,10.2,1.5,12.2c1.9,3.1,4.1,4.1,8.9,4.4c2.9,0.1,23.4-4.3,27.2-2.2c1.5,0.8,1.1,1.8,0.9,4
		c-0.8,6.7-4.1,25.7-11.4,51.5c-5,17.8-17.2,52.2-22.2,70c-1.7,6.1,1.9,8.4,4.8,10.2c2.9,1.8,7.4,2.9,11.2,2.5
		c5.3-0.5,6.8-2.9,8.5-6.4c6.4-13.2,30.7-92.2,38.1-122.9C534.7,67.7,536.1,62.3,542.3,59.4z"/>
	<path fill-rule="evenodd" clip-rule="evenodd" fill="#FFFFFF" d="M576.3,86.6c-3-2.3-8.4-3.8-12.1-4.3c-6-0.8-8.3,2-9.5,8.2
		c-1.2,6.2-3,14.4-6.2,28.6c-4.6,19.8-18.2,60.8-19.1,65.6c-1,5.2,0.4,7.7,4.8,9.1c2.5,0.8,6.1,1.3,9.1,1.4
		c6.9,0.1,8.7-1.8,11.2-7.3s24.9-73.2,26.5-91.3C581.2,93.3,580.6,89.8,576.3,86.6z"/>
	<path fill-rule="evenodd" clip-rule="evenodd" fill="#FFFFFF" d="M838.2,9.7c0-2.9-3.3-5.2-6.7-5.2c-4.3,0-11.2,1.5-17.1,2.8
		c-31.8,7.1-102.5,26.3-108.1,27.8c-3.1,0.8-6.5,2.3-8.2,0.3c-4.7-5.4-14-15.7-39.7-12.4c-19.7,2.5-35,11.6-43.8,21
		c-8.6,9.2-12.5,20.6-13.4,26.7c-2.3,16.8,5.7,33.5,16,47.5c6.1,8.3,14.9,18.3,21.5,26.3c6.1,7.5,2.4,11.8-4.2,14
		c-7.8,2.6-21,5-30.1,6.7c-13,2.4-18.4,5.9-18,12.9c0.3,6,5.8,11.6,11.7,14.2c2.2,1,6.1,1.5,11,0.5c14.2-3,30.8-9.6,44.8-15.6
		c18.4-7.9,21.9-21.7,9.1-39.1c-7.7-10.4-16.7-21.4-24.3-31.8c-9.4-12.9-15-25.5-9.4-37.1c6.5-13.3,17.5-17.7,29.8-20.2
		c2.5-0.5,8.2-1.2,12.2,0.2c5.3,1.8,6.3,5.6,8.1,11.4c3.7,11.9,11.7,13.1,16.5,12.1c3.6-0.7,5.2-3,9.6-6.7c7.7-6.5,16-9.2,21.7-9.9
		c0.9-0.1,2.1,0.6,1.9,1.5c-0.6,2.3-11.1,31-15.6,44.5c-7.2,21.5-6.3,19.2-11.8,41.2c-3.5,13.8-7,31.4-6.8,40.4
		c0.1,7.2,1.7,9.7,4.8,11.3c3.1,1.6,6.8,2,10.2,1.5c2.5-0.4,6.5-1.9,7.6-7.5c0.5-2.6,3.5-26.6,18-70.7c11-33.3,20.3-54.8,24-62
		c3-5.8,5.1-8,8.5-10.7c4-3.1,8.9-4.6,15.6-6.6c16-4.7,34.6-8.8,41-11c4.7-1.6,8.3-2.9,10.2-5.4C838.1,18.2,838.2,12.6,838.2,9.7z"
		/>
	<path fill-rule="evenodd" clip-rule="evenodd" fill="#FFFFFF" d="M451,125.9c-1.8-0.5-2.3-0.9-2.6-3c-0.2-1.7,0.3-55.6-0.1-73.5
		c0-1.4,0.1-5.8-0.5-9.2c-0.5-2.8-1.4-4.8-3.4-6.6c-3.1-2.9-5.1-4.2-8.7-5.9c-5.8-2.8-9,0.6-10.5,2.1c-1.5,1.5-2.7,2.9-4.4,4.3
		c-1.8,1.5-3,2.1-4.4,2.8c-2.1,1-3.2,1.4-5.7,1.9c-2.3,0.5-4,1.3-5.6,3.8c-8,12.5-34.5,77.9-50.9,129.8c-1,3.3-2.4,8.1-2.6,9
		c-1.2,6.6-0.1,9.3,3.7,11.7c2.7,1.7,13.3,3.3,18.3-3.1c4.1-5.2,7-20.2,17.4-25.6c3.9-2,9.2-3.6,14.4-5c4.4-1.2,8.3-2.3,14.5-3.3
		c1-0.1,1.7,0.6,1.7,1.6c0,4.1-0.4,14.5-2.6,35.7c-0.3,2.6,0.8,4.7,3,6.6c2.9,2.4,10.2,4.6,13.4,4.4c5.6-0.4,8.3-3.9,9.3-12.8
		c1.1-9.9,1.5-16.5,2.2-26.4c0.2-3.1,0.3-11.7,0.3-14c0-2,0.2-3.4,2.5-4.3c2-0.8,3.3-1.1,6.7-2.3c1.7-0.6,2.8-2.2,2.7-4
		c-0.1-2.3-1-7.2-3.1-10.7C455,127.7,452.7,126.3,451,125.9z M422.9,128.9c0,1.6-1.1,2.9-2.6,3.2c-6.6,1.5-15.9,3.5-24.1,4.8
		c-0.9,0.1-1.5-0.8-1.2-1.6c5.9-17.2,22.7-60.2,24.6-63.8c1.7-3.4,3.2-2,3.3-0.5C423.6,86.2,423,114.9,422.9,128.9z"/>
	<path fill-rule="evenodd" clip-rule="evenodd" fill="#FFFFFF" d="M333,101.8c-4.3,1.5-16.9,6.3-23,8.4c-7.6,2.7-14.3,3.9-15,4
		c-1.7,0.1-2.8-1-1.8-4.7c2-7.2,6.6-22.4,8.7-28.6c1.9-5.5,4-6,10.5-7.4c8-1.7,16.6-3.1,25.6-4.5c6-1,13.3-2,18.9-3.1
		c5.1-0.9,6.2-3.9,4.5-9c-1.3-4.1-2.7-7.2-4.5-9.5c-2.4-3.1-6-4.7-12.1-4.1c-3.7,0.3-7.9,1.2-12.2,2.1c-6.7,1.4-14.4,3.5-21,4.5
		c-2.3,0.4-4.5,0.5-6.4,0.4c-3.3-0.2-6-0.7-10.6-1c-2.5-0.2-7.1,0.4-8.9,1.5c-2,1.2-2,2.5-4.1,3.4c-3.9,1.8-7.6,2.3-11.4,3.6
		c-3.1,1.1-4.8,3.2-5.1,7.9c-0.3,4.1,1.6,9.6,2.4,11.1c1.7,3.2,4.6,3.2,5.6,3.2c1.3,0,1.2,0.6,0.6,2.8c-7.6,28.7-19.2,74.3-21.7,87
		c-2.1,10.5-3.2,19.2,0.3,27.2c2.3,5.2,5.9,7.7,9.3,9.2c5.4,2.4,14.1,2.1,18.7,1.5c10.9-1.4,22.8-6.4,36.2-10.8
		c8.1-2.7,14.7-4.4,18.9-6.5c3.2-1.6,4.2-4.9,2.8-9.3c-1.7-5.2-3.6-8.8-7.9-9.7c-4.8-1-12.6,0.5-23,3.6c-7.8,2.3-15.5,4.9-22.9,5.9
		c-3.3,0.4-7,1-6.5-5.8c0.3-4.2,2.7-15.6,3.9-19.3c1.9-5.8,2.6-10.9,7.6-13c17.4-7.1,34.3-11.8,52-18.2c3.7-1.3,5.6-4,5.9-7.2
		c0.5-5.3,0.1-7.2-1.8-11.7C343.1,100.8,339.6,99.6,333,101.8z"/>
</g>
</svg>
